<?xml version="1.0" standalone="no"?>
<!DOCTYPE svg PUBLIC "-//W3C//DTD SVG 1.1//EN" "http://www.w3.org/Graphics/SVG/1.1/DTD/svg11.dtd" >
<svg xmlns="http://www.w3.org/2000/svg" xmlns:xlink="http://www.w3.org/1999/xlink" version="1.1">
<metadata>
Created by FontForge 20170910 at Thu Jan  2 20:51:17 2014
 By Jimmy Wärting
Copyright (c) 2014 by Paulo R. All rights reserved.
</metadata>
<defs>
<font id="Arenq" horiz-adv-x="615" >
  <font-face 
    font-family="Arenq"
    font-weight="500"
    font-stretch="normal"
    units-per-em="1000"
    panose-1="2 0 6 3 0 0 0 2 0 4"
    ascent="750"
    descent="-250"
    x-height="666"
    cap-height="750"
    bbox="20 -1.25 1075 750.675"
    underline-thickness="50"
    underline-position="-100"
    unicode-range="U+0020-F8FF"
  />
<missing-glyph horiz-adv-x="250" 
 />
    <glyph glyph-name=".notdef" horiz-adv-x="250" 
 />
    <glyph glyph-name="A.salt" horiz-adv-x="630" 
d="M490 485v-485h-10v250h-330v-250h-10v250h-80v-250h-10v260h430v80h-430v145c0 146 119 265 265 265s265 -119 265 -265v-485h-10v485c0 141 -114 255 -255 255s-255 -114 -255 -255v-135h80v135c0 97 78 175 175 175s175 -78 175 -175zM150 485v-135h330v135
c0 91 -74 165 -165 165s-165 -74 -165 -165z" />
    <glyph glyph-name="B" unicode="B" horiz-adv-x="563" 
d="M60 325v-325h-10v660h250c68 0 123 -55 123 -123c0 -54 -35 -100 -84 -116c34 -6 64 -19 90 -39c45 37 74 93 74 155c0 112 -91 203 -203 203h-250v10h250c118 0 213 -95 213 -213c0 -65 -30 -123 -76 -161c46 -39 76 -98 76 -164c0 -118 -95 -212 -213 -212h-160v325
h-80zM60 415v-80h240c68 0 123 -55 123 -123s-55 -122 -123 -122h-150v-80h150c112 0 203 90 203 202c0 111 -89 201 -198 203h-245zM413 212c0 62 -51 113 -113 113h-150v-225h150c62 0 113 50 113 112zM413 537c0 62 -51 113 -113 113h-150v-225h154c60 3 109 52 109 112z
M60 650v-225h80v225h-80z" />
    <glyph glyph-name="C" unicode="C" horiz-adv-x="741" 
d="M168 633c-142 -142 -142 -374 0 -516s374 -142 516 0l7 -7c-146 -147 -384 -147 -530 0c-147 146 -147 384 0 530c146 147 384 147 530 0l-7 -7c-142 142 -374 142 -516 0zM620 181l8 -8c-111 -111 -293 -111 -404 0s-111 293 0 404s293 111 404 0l-8 -8
c-107 108 -281 108 -388 0c-108 -107 -108 -281 0 -388c107 -108 281 -108 388 0z" />
    <glyph glyph-name="C.salt" horiz-adv-x="625" 
d="M425 10h150v-10h-150c-207 0 -375 168 -375 375s168 375 375 375h150v-10h-150c-201 0 -365 -164 -365 -365s164 -365 365 -365zM150 375c0 -152 123 -275 275 -275h150v-10h-150c-157 0 -285 128 -285 285s128 285 285 285h150v-10h-150c-152 0 -275 -123 -275 -275z
" />
    <glyph glyph-name="D" unicode="D" horiz-adv-x="725" 
d="M50 0v660h250c157 0 285 -128 285 -285s-128 -285 -285 -285h-150v-80h150c201 0 365 164 365 365s-164 365 -365 365h-250v10h250c207 0 375 -168 375 -375s-168 -375 -375 -375h-160v650h-80v-650h-10zM575 375c0 152 -123 275 -275 275h-150v-550h150
c152 0 275 123 275 275z" />
    <glyph glyph-name="E" unicode="E" 
d="M60 415v-80h415v-10h-325v-225h415v-10h-415v-80h415v-10h-425v325h-80v-325h-10v660h515v-10h-415v-225h325v-10h-415zM60 650v-225h80v225h-80zM50 740v10h515v-10h-515z" />
    <glyph glyph-name="E.salt" horiz-adv-x="525" 
d="M150 537c0 -60 49 -109 109 -112h216v-10h-217c-109 -2 -198 -92 -198 -203c0 -112 91 -202 203 -202h212v-10h-212c-118 0 -213 94 -213 212c0 66 30 125 76 164c-46 38 -76 96 -76 161c0 118 95 213 213 213h212v-10h-212c-112 0 -203 -91 -203 -203
c0 -62 29 -118 74 -155c26 20 56 33 90 39c-49 16 -84 62 -84 116c0 68 55 123 123 123h212v-10h-212c-62 0 -113 -51 -113 -113zM150 212c0 -62 51 -112 113 -112h212v-10h-212c-68 0 -123 54 -123 122s55 123 123 123h212v-10h-212c-62 0 -113 -51 -113 -113z" />
    <glyph glyph-name="F" unicode="F" 
d="M60 650v-650h-10v660h515v-10h-415v-225h325v-10h-325v-80h325v-10h-325v-325h-10v650h-80zM50 740v10h515v-10h-515z" />
    <glyph glyph-name="F.salt" horiz-adv-x="525" 
d="M150 537c0 -60 49 -109 109 -112h216v-10h-217c-109 -2 -198 -92 -198 -203v-212h-10v212c0 66 30 125 76 164c-46 38 -76 96 -76 161c0 118 95 213 213 213h212v-10h-212c-112 0 -203 -91 -203 -203c0 -62 29 -118 74 -155c26 20 56 33 90 39c-49 16 -84 62 -84 116
c0 68 55 123 123 123h212v-10h-212c-62 0 -113 -51 -113 -113zM150 212v-212h-10v212c0 68 55 123 123 123h212v-10h-212c-62 0 -113 -51 -113 -113z" />
    <glyph glyph-name="G" unicode="G" horiz-adv-x="850" 
d="M425 325v10h373c-19 -189 -179 -336 -373 -335c-207 -1 -375 167 -374 374c-1 208 167 376 374 375c104 0 198 -42 266 -109l-8 -8c-66 67 -157 107 -258 107c-200 0 -364 -164 -364 -365c0 -200 164 -364 364 -364c184 0 337 138 361 315h-80
c-23 -134 -141 -236 -281 -236c-157 0 -285 128 -285 285s128 286 285 286c79 -1 150 -32 202 -84l-8 -8c-50 50 -118 81 -194 81c-152 0 -275 -123 -274 -275c-1 -152 122 -275 274 -274c135 -1 247 96 270 225h-270zM800 425v-10h-375v10h375z" />
    <glyph glyph-name="G.salt" horiz-adv-x="630" 
d="M580 270c0 -146 -119 -270 -265 -270s-265 119 -265 265v220c0 146 119 265 265 265c72 0 139 -30 187 -77l-8 -7c-46 45 -109 74 -179 74c-141 0 -255 -114 -255 -255v-220c0 -141 114 -255 255 -255s255 119 255 260h-80c0 -97 -78 -180 -175 -180s-175 78 -175 175
v220c0 97 78 175 175 175c48 0 91 -19 122 -50l-7 -7c-30 29 -71 47 -115 47c-91 0 -165 -74 -165 -165v-220c0 -91 74 -165 165 -165s165 79 165 170h-165v10h265v-10zM580 370v-10h-265v10h265z" />
    <glyph glyph-name="H" unicode="H" horiz-adv-x="575" 
d="M50 0v335h375v80h-375v335h10v-325h80v325h10v-325h275v325h10v-750h-10v325h-275v-325h-10v325h-80v-325h-10zM515 0v750h10v-750h-10z" />
    <glyph glyph-name="I" unicode="I" horiz-adv-x="200" 
d="M140 335v80h-90v335h10v-325h80v325h10v-750h-10v325h-80v-325h-10v335h90z" />
    <glyph glyph-name="I.salt" horiz-adv-x="200" 
d="M150 0h-10v750h10v-750zM50 0v750h10v-750h-10z" />
    <glyph glyph-name="J" unicode="J" horiz-adv-x="313" 
d="M163 213v122h90v80h-90v335h10v-325h80v325h10v-537c0 -118 -95 -213 -213 -213v10c112 0 203 91 203 203v112h-80v-112c0 -68 -55 -123 -123 -123v10c62 0 113 51 113 113z" />
    <glyph glyph-name="J.salt" horiz-adv-x="313" 
d="M50 10c112 0 203 91 203 203v537h10v-537c0 -118 -95 -213 -213 -213v10zM163 213v537h10v-537c0 -68 -55 -123 -123 -123v10c62 0 113 51 113 113z" />
    <glyph glyph-name="K" unicode="K" horiz-adv-x="638" 
d="M457 0l-250 304l367 446h14l-308 -375l307 -375h-13l-301 366l-51 -63l248 -303h-13zM471 750l-321 -390v-360h-10v750h10v-375l307 375h14zM50 0v750h10v-750h-10z" />
    <glyph glyph-name="K.salt" horiz-adv-x="618" 
d="M156 381c57 -74 61 -76 298 -381h-13l-228 294l-63 -82v-212h-10v199l-80 -103v-96h-10v101c89 113 96 122 157 201l-51 66c-8 -10 -11 -13 -106 -137v519h10v-492l80 103v389h10v-376zM557 0c-294 375 -293 376 -351 447l235 303h13l-235 -301l51 -66l287 367h11
l-292 -375l292 -375h-11z" />
    <glyph glyph-name="L" unicode="L" 
d="M50 90v660h10v-650h80v650h10v-650h415v-10h-515zM50 0v10h515v-10h-515z" />
    <glyph glyph-name="M" unicode="M" horiz-adv-x="811" 
d="M399 259l352 354v112l-408 -410l-193 193v-508h-10v660l266 -266l355 356v-750h-10v598l-80 -80v-518h-10v508l-255 -256zM398 387l-248 248v-112l192 -192zM60 740v-740h-10v750z" />
    <glyph glyph-name="M.salt" horiz-adv-x="1125" 
d="M702 728l-189 -379l-90 181l-264 -530h-10l264 531l5 10l-44 88l-314 -629h-10l324 652c46 -98 92 -190 139 -282l44 89c-48 98 -96 188 -140 280l6 11l139 -280l140 280l373 -750h-10c-208 418 -276 553 -314 630l-44 -90c35 -71 98 -195 270 -540h-11l-264 530
l-140 -280l-5 11l189 379c-16 33 -29 58 -44 88z" />
    <glyph glyph-name="N" unicode="N" horiz-adv-x="709" 
d="M150 636v-113l509 -509v-14l-509 508v-508h-10v660l419 -419v509h10v-519l80 -80v599h10v-624zM50 0v750l10 -10v-740h-10z" />
    <glyph glyph-name="N.salt" horiz-adv-x="1113" 
d="M690 0l-264 530l-265 -530h-12l326 651l215 -431l264 530h10l-264 -531l-5 -10l44 -88l314 629h10l-324 -652c-46 98 -217 440 -264 532l-44 -89c48 -98 221 -438 265 -530zM426 750l5 -11l-369 -739h-12z" />
    <glyph glyph-name="O" unicode="O" horiz-adv-x="851" 
d="M205 210c8 -11 16 -21 26 -31c9 -9 20 -18 31 -26l456 456c119 -147 109 -364 -27 -500c-146 -147 -384 -147 -530 0c-147 146 -147 384 0 530c136 136 353 146 500 27zM627 172c-111 -111 -292 -111 -403 0s-111 292 0 403c99 99 253 110 364 32l58 57
c-143 109 -348 98 -478 -32c-143 -142 -143 -374 0 -516c142 -143 374 -143 516 0c130 130 141 335 32 478l-57 -58c77 -111 67 -265 -32 -364zM620 179c96 96 106 243 32 350l-383 -382c108 -74 256 -63 351 32zM231 568c-95 -95 -106 -243 -32 -351l382 383
c-107 74 -254 64 -350 -32z" />
    <glyph glyph-name="O.salt" horiz-adv-x="850" 
d="M50 375c0 207 168 375 375 375s375 -168 375 -375s-168 -375 -375 -375s-375 168 -375 375zM60 375c0 -201 164 -365 365 -365s365 164 365 365s-164 365 -365 365s-365 -164 -365 -365zM710 375c0 157 -128 285 -285 285s-285 -128 -285 -285s128 -285 285 -285
s285 128 285 285zM700 375c0 -152 -123 -275 -275 -275s-275 123 -275 275s123 275 275 275s275 -123 275 -275z" />
    <glyph glyph-name="P" unicode="P" horiz-adv-x="590" 
d="M60 650v-650h-10v660h250c83 0 150 -67 150 -150s-67 -150 -150 -150h-150v-80h150c127 0 230 103 230 230s-103 230 -230 230h-250v10h250c132 0 240 -108 240 -240s-108 -240 -240 -240h-150v-270h-10v650h-80zM441 510c0 78 -63 141 -141 141v-1h-150v-280h150
c78 0 141 62 141 140z" />
    <glyph glyph-name="Q" unicode="Q" horiz-adv-x="851" 
d="M726 3l-73 73c-147 -112 -358 -101 -493 33c-146 147 -146 384 0 531c147 146 384 146 531 0c134 -135 145 -346 33 -493l73 -73l-7 -7l-144 143c81 108 72 261 -26 359c-107 107 -281 107 -389 0c-107 -108 -107 -282 0 -389c98 -98 251 -107 359 -26l143 -144zM627 576
c99 -99 110 -254 33 -365l57 -57c107 143 97 348 -33 478c-142 143 -374 143 -516 0c-143 -142 -143 -374 0 -516c130 -130 335 -141 478 -33l-57 57c-112 -77 -266 -66 -365 33c-111 111 -111 292 0 403s292 111 403 0z" />
    <glyph glyph-name="R" unicode="R" horiz-adv-x="608" 
d="M547 0l-258 370h11c77 0 140 63 140 140s-63 140 -140 140h-150v-650h-10v650h-80v-650h-10v660h250c83 0 150 -67 150 -150c0 -81 -64 -147 -143 -150l51 -73c99 25 172 116 172 223c0 127 -103 230 -230 230h-250v10h250c132 0 240 -108 240 -240
c0 -110 -75 -204 -176 -232l194 -278h-11zM437 0l-193 273l9 7l195 -280h-11z" />
    <glyph glyph-name="R.salt" horiz-adv-x="605" 
d="M50 740v10h250c132 0 240 -108 240 -240c0 -110 -75 -204 -177 -232l192 -278h-12l-190 276c-17 -4 -35 -6 -53 -6h-41l185 -270h-11l-193 280h60c16 0 32 1 47 4l-57 86h10c78 0 141 62 141 140s-63 141 -141 141v-1h-150v-650h-10v650h-80v-650h-10v660h250
c83 0 150 -67 150 -150c0 -81 -64 -147 -143 -150l50 -73c100 25 173 116 173 223c0 127 -103 230 -230 230h-250z" />
    <glyph glyph-name="S" unicode="S" horiz-adv-x="525" 
d="M263 650c-62 0 -113 -51 -113 -113s50 -112 112 -112c118 0 213 -94 213 -212s-95 -213 -213 -213h-212v10h212c112 0 203 91 203 203s-91 202 -203 202c-68 0 -122 54 -122 122s55 123 123 123h212v-10h-212zM262 90h-212v10h212c62 0 113 51 113 113
c0 61 -51 111 -112 112c-118 0 -213 94 -213 212s95 213 213 213h212v-10h-212c-112 0 -203 -91 -203 -203s91 -202 203 -202c67 -1 122 -55 122 -122c0 -68 -55 -123 -123 -123z" />
    <glyph glyph-name="S.salt" horiz-adv-x="525" 
d="M262 90h-212v10h212c62 0 113 51 113 113c0 61 -51 111 -112 112c-118 0 -213 94 -213 212s95 213 213 213h212v-10h-212c-112 0 -203 -91 -203 -203c0 -80 46 -148 112 -181l62 62c-55 12 -94 60 -94 119c0 68 55 123 123 123h212v-10h-212c-62 0 -113 -51 -113 -113
c0 -60 46 -109 105 -112l-73 -73c25 -11 52 -17 81 -17c5 0 10 -1 15 -1l72 72c74 -33 125 -107 125 -193c0 -118 -95 -213 -213 -213h-212v10h212c112 0 203 91 203 203c0 79 -46 148 -113 181l-63 -63c55 -12 96 -60 96 -118c0 -68 -55 -123 -123 -123z" />
    <glyph glyph-name="T" unicode="T" horiz-adv-x="700" 
d="M400 0h-10v650h-80v-650h-10v650h-250v10h600v-10h-250v-650zM650 740h-600v10h600v-10z" />
    <glyph glyph-name="U" unicode="U" horiz-adv-x="630" 
d="M580 265c0 -146 -119 -265 -265 -265s-265 119 -265 265v485h10v-485c0 -141 114 -255 255 -255s255 114 255 255v485h10v-485zM490 265c0 -97 -78 -175 -175 -175s-175 78 -175 175v485h10v-485c0 -91 74 -165 165 -165s165 74 165 165v485h10v-485z" />
    <glyph glyph-name="V" unicode="V" horiz-adv-x="846" 
d="M698 750c-278 -557 -270 -539 -324 -651l-324 651h10l314 -629l44 88l-269 541h10l264 -530l264 530h11zM786 750h10l-373 -750l-6 11c56 109 47 92 369 739z" />
    <glyph glyph-name="W" unicode="W" horiz-adv-x="1125" 
d="M702 22c15 30 28 55 44 88l-189 379l5 11l140 -280l264 530h11c-172 -345 -235 -469 -270 -540l44 -90c38 77 106 212 314 630h10l-373 -750l-140 280l-139 -280l-6 11c44 92 92 182 140 280l-44 89c-47 -92 -93 -184 -139 -282l-324 652h10l314 -629l44 88l-5 10
l-264 531h10l264 -530l90 181z" />
    <glyph glyph-name="W.salt" horiz-adv-x="1060" 
d="M50 270v480h10v-480c0 -141 114 -260 255 -260s255 119 255 260v480h10v-480v-7c4 -88 77 -163 165 -163c91 0 165 79 165 170v480h10v-480c0 -97 -78 -180 -175 -180c-81 0 -149 58 -169 134c-6 -36 -20 -71 -40 -101c46 -67 122 -113 209 -113c141 0 255 119 255 260
v480h10v-480c0 -146 -119 -270 -265 -270c-88 0 -166 45 -214 114c-48 -68 -127 -114 -216 -114c-146 0 -265 124 -265 270zM490 750v-480c0 -97 -78 -180 -175 -180s-175 83 -175 180v480h10v-480c0 -91 74 -170 165 -170s165 79 165 170v480h10z" />
    <glyph glyph-name="X" unicode="X" horiz-adv-x="711" 
d="M650 0l-492 750h11l187 -285l187 285h11l-193 -293l49 -74l241 367h10l-246 -375l246 -375h-11zM356 285l-187 -285h-11l193 293l-49 74l-241 -367h-11l247 375l-247 375h10l494 -750h-11z" />
    <glyph glyph-name="X.salt" horiz-adv-x="563" 
d="M263 425h41c60 3 109 52 109 112v213h10v-213c0 -54 -35 -100 -84 -116c34 -6 64 -19 90 -39c45 37 74 93 74 155v213h10v-213c0 -65 -30 -123 -76 -161c46 -39 76 -98 76 -164v-212h-10v212c0 111 -89 201 -198 203h-47c-65 3 -118 57 -118 123v212h10v-212
c0 -62 51 -113 113 -113zM258 335h47c65 -3 118 -57 118 -123v-212h-10v212c0 62 -51 113 -113 113h-41c-60 -3 -109 -52 -109 -112v-213h-10v213c0 54 35 100 84 116c-34 6 -64 19 -90 39c-45 -37 -74 -93 -74 -155v-213h-10v213c0 65 30 123 76 161c-46 39 -76 98 -76 164
v212h10v-212c0 -111 89 -201 198 -203z" />
    <glyph glyph-name="Y" unicode="Y" horiz-adv-x="795" 
d="M452 327l-292 423h11l227 -326l226 326h12l-232 -335l48 -69l280 404h13zM452 0h-10v186l-85 122v-308h-10v323l-297 427h14l388 -561v-189z" />
    <glyph glyph-name="Y.salt" horiz-adv-x="630" 
d="M490 535c0 -80 -53 -146 -125 -168v-82c117 23 205 126 205 250v215h10v-215c0 -129 -93 -237 -215 -260v-275h-10v375c71 18 125 83 125 160v215h10v-215zM265 0v275c-123 23 -215 131 -215 260v215h10v-215c0 -124 88 -227 205 -250v82c-73 22 -125 88 -125 168v215h10
v-215c0 -77 53 -142 125 -160v-375h-10z" />
    <glyph glyph-name="Z" unicode="Z" horiz-adv-x="708" 
d="M126 100h97l422 650h13l-425 -650h425v-10h-550l366 560h-416v10h422l52 80h-474v10h491zM57 10h601v-10h-608z" />
    <glyph glyph-name="a" unicode="a" horiz-adv-x="846" 
d="M179 240c-12 -26 -25 -52 -40 -80h577l80 -160h-10l-75 150h-89l75 -150h-10l-75 150h-379l-74 -150h-11c27 55 52 105 74 150h-88c-23 -46 -47 -95 -74 -150h-10l373 750l6 -11c-48 -93 -50 -97 -245 -489h88c152 304 156 309 200 401l204 -411h-497zM423 530l-140 -280
h279zM472 629l-44 -88l144 -291h89z" />
    <glyph glyph-name="b" unicode="b" horiz-adv-x="563" 
d="M60 325v-325h-10v660h250c68 0 123 -55 123 -123c0 -54 -35 -100 -84 -116c34 -6 64 -19 90 -39c45 37 74 93 74 155c0 112 -91 203 -203 203h-250v10h250c118 0 213 -95 213 -213c0 -65 -30 -123 -76 -161c46 -39 76 -98 76 -164c0 -118 -95 -212 -213 -212h-160v325
h-80zM60 415v-80h240c68 0 123 -55 123 -123s-55 -122 -123 -122h-150v-80h150c112 0 203 90 203 202c0 111 -89 201 -198 203h-245zM413 212c0 62 -51 113 -113 113h-150v-225h150c62 0 113 50 113 112zM413 537c0 62 -51 113 -113 113h-150v-225h154c60 3 109 52 109 112z
M60 650v-225h80v225h-80z" />
    <glyph glyph-name="c" unicode="c" horiz-adv-x="741" 
d="M168 633c-142 -142 -142 -374 0 -516s374 -142 516 0l7 -7c-146 -147 -384 -147 -530 0c-147 146 -147 384 0 530c146 147 384 147 530 0l-7 -7c-142 142 -374 142 -516 0zM620 181l8 -8c-111 -111 -293 -111 -404 0s-111 293 0 404s293 111 404 0l-8 -8
c-107 108 -281 108 -388 0c-108 -107 -108 -281 0 -388c107 -108 281 -108 388 0z" />
    <glyph glyph-name="d" unicode="d" horiz-adv-x="725" 
d="M50 0v660h250c157 0 285 -128 285 -285s-128 -285 -285 -285h-150v-80h150c201 0 365 164 365 365s-164 365 -365 365h-250v10h250c207 0 375 -168 375 -375s-168 -375 -375 -375h-160v650h-80v-650h-10zM575 375c0 152 -123 275 -275 275h-150v-550h150
c152 0 275 123 275 275z" />
    <glyph glyph-name="e" unicode="e" 
d="M60 415v-80h415v-10h-325v-225h415v-10h-415v-80h415v-10h-425v325h-80v-325h-10v660h515v-10h-415v-225h325v-10h-415zM60 650v-225h80v225h-80zM50 740v10h515v-10h-515z" />
    <glyph glyph-name="eight" unicode="8" horiz-adv-x="580" 
d="M530 240c0 -132 -108 -240 -240 -240s-240 108 -240 240c0 82 42 155 105 198c-31 33 -50 78 -50 127c0 102 83 185 185 185s185 -83 185 -185c0 -49 -19 -94 -51 -127c64 -44 106 -116 106 -198zM440 240c0 -83 -67 -150 -150 -150s-150 67 -150 150s67 150 150 150
c97 0 175 78 175 175s-78 175 -175 175s-175 -78 -175 -175c0 -47 18 -91 48 -122c27 17 57 29 90 34c-34 15 -58 49 -58 88c0 52 43 95 95 95s95 -43 95 -95s-43 -95 -95 -95c-127 0 -230 -103 -230 -230s103 -230 230 -230s230 103 230 230c0 79 -41 149 -103 191
c-24 -23 -54 -39 -87 -47c63 -17 110 -75 110 -144zM430 240c0 77 -63 140 -140 140s-140 -63 -140 -140s63 -140 140 -140s140 63 140 140zM375 565c0 47 -38 85 -85 85s-85 -38 -85 -85s38 -85 85 -85s85 38 85 85z" />
    <glyph glyph-name="f" unicode="f" 
d="M60 650v-650h-10v660h515v-10h-415v-225h325v-10h-325v-80h325v-10h-325v-325h-10v650h-80zM50 740v10h515v-10h-515z" />
    <glyph glyph-name="five" unicode="5" horiz-adv-x="580" 
d="M101 339h-10v321h439v-10h-339v-192c30 14 64 22 99 22c132 0 240 -108 240 -240s-108 -240 -240 -240s-240 108 -240 240h10c0 -127 103 -230 230 -230s230 103 230 230s-103 230 -230 230c-35 0 -69 -9 -99 -23v-95c27 23 62 38 99 38c83 0 150 -67 150 -150
s-67 -150 -150 -150s-150 67 -150 150h10c0 -77 63 -140 140 -140s140 63 140 140s-63 140 -140 140c-38 0 -73 -16 -99 -41h-10v311h-80v-311zM91 740v10h439v-10h-439z" />
    <glyph glyph-name="four" unicode="4" horiz-adv-x="600" 
d="M92 360l182 390h12l-178 -380h88l178 380h11l-177 -380h242v380h10v-750h-10v270h-400l5 10h395v80h-358zM540 0v750h10v-750h-10z" />
    <glyph glyph-name="g" unicode="g" horiz-adv-x="850" 
d="M425 325v10h373c-19 -189 -179 -336 -373 -335c-207 -1 -375 167 -374 374c-1 208 167 376 374 375c104 0 198 -42 266 -109l-8 -8c-66 67 -157 107 -258 107c-200 0 -364 -164 -364 -365c0 -200 164 -364 364 -364c184 0 337 138 361 315h-80
c-23 -134 -141 -236 -281 -236c-157 0 -285 128 -285 285s128 286 285 286c79 -1 150 -32 202 -84l-8 -8c-50 50 -118 81 -194 81c-152 0 -275 -123 -274 -275c-1 -152 122 -275 274 -274c135 -1 247 96 270 225h-270zM800 425v-10h-375v10h375z" />
    <glyph glyph-name="h" unicode="h" horiz-adv-x="575" 
d="M50 0v335h375v80h-375v335h10v-325h80v325h10v-325h275v325h10v-750h-10v325h-275v-325h-10v325h-80v-325h-10zM515 0v750h10v-750h-10z" />
    <glyph glyph-name="i" unicode="i" horiz-adv-x="200" 
d="M140 335v80h-90v335h10v-325h80v325h10v-750h-10v325h-80v-325h-10v335h90z" />
    <glyph glyph-name="i.salt" horiz-adv-x="200" 
d="M150 0h-10v550h10v-550zM50 0v550h10v-550h-10zM60 750v-100h-10v100h10zM150 750v-100h-10v100h10z" />
    <glyph glyph-name="j" unicode="j" horiz-adv-x="313" 
d="M163 213v122h90v80h-90v335h10v-325h80v325h10v-537c0 -118 -95 -213 -213 -213v10c112 0 203 91 203 203v112h-80v-112c0 -68 -55 -123 -123 -123v10c62 0 113 51 113 113z" />
    <glyph glyph-name="j.salt" horiz-adv-x="313" 
d="M263 213c0 -118 -95 -213 -213 -213v10c112 0 203 91 203 203v337h10v-337zM173 550v-337c0 -68 -55 -123 -123 -123v10c62 0 113 51 113 113v337h10zM263 750v-100h-10v100h10zM173 750v-100h-10v100h10z" />
    <glyph glyph-name="k" unicode="k" horiz-adv-x="638" 
d="M457 0l-250 304l367 446h14l-308 -375l307 -375h-13l-301 366l-51 -63l248 -303h-13zM471 750l-321 -390v-360h-10v750h10v-375l307 375h14zM50 0v750h10v-750h-10z" />
    <glyph glyph-name="k.salt" horiz-adv-x="563" 
d="M60 415v-80h245c65 -3 118 -57 118 -123v-212h-10v212c0 62 -51 113 -113 113h-150v-325h-10v325h-80v-325h-10v750h10v-325h80v325h10v-325h154c60 3 109 52 109 112v213h10v-213c0 -54 -35 -100 -84 -116c34 -6 64 -19 90 -39c45 37 74 93 74 155v213h10v-213
c0 -65 -30 -123 -76 -161c46 -39 76 -98 76 -164v-212h-10v212c0 111 -89 201 -198 203h-245z" />
    <glyph glyph-name="l" unicode="l" 
d="M50 90v660h10v-650h80v650h10v-650h415v-10h-515zM50 0v10h515v-10h-515z" />
    <glyph glyph-name="m" unicode="m" horiz-adv-x="811" 
d="M399 259l352 354v112l-408 -410l-193 193v-508h-10v660l266 -266l355 356v-750h-10v598l-80 -80v-518h-10v508l-255 -256zM398 387l-248 248v-112l192 -192zM60 740v-740h-10v750z" />
    <glyph glyph-name="m.salt" horiz-adv-x="1060" 
d="M1010 480v-480h-10v480c0 141 -114 260 -255 260s-255 -119 -255 -260v-480h-10v480v7c-4 88 -77 163 -165 163c-91 0 -165 -79 -165 -170v-480h-10v480c0 97 78 180 175 180c81 0 149 -58 169 -134c6 36 20 71 40 101c-46 67 -122 113 -209 113
c-141 0 -255 -119 -255 -260v-480h-10v480c0 146 119 270 265 270c88 0 166 -45 214 -114c48 68 127 114 216 114c146 0 265 -124 265 -270zM570 0v480c0 97 78 180 175 180s175 -83 175 -180v-480h-10v480c0 91 -74 170 -165 170s-165 -79 -165 -170v-480h-10z" />
    <glyph glyph-name="n" unicode="n" horiz-adv-x="709" 
d="M150 636v-113l509 -509v-14l-509 508v-508h-10v660l419 -419v509h10v-519l80 -80v599h10v-624zM50 0v750l10 -10v-740h-10z" />
    <glyph glyph-name="nine" unicode="9" horiz-adv-x="581" 
d="M493 381l-220 -382h-12l195 337c-36 -34 -82 -55 -129 -63l-158 -274h-12l158 273c-49 -6 -99 4 -145 30c-114 66 -153 213 -87 328c66 114 213 153 328 87c114 -66 153 -213 87 -328zM485 387l5 7c63 110 26 251 -84 315c-110 63 -251 26 -315 -84
c-63 -110 -25 -251 84 -315c108 -62 244 -27 310 77zM420 435c-41 -72 -133 -97 -204 -55c-72 41 -97 133 -55 205c41 71 133 96 205 54c71 -41 96 -133 54 -204zM412 440c38 66 15 152 -51 191c-67 38 -153 15 -192 -51c-38 -67 -15 -153 52 -192c66 -38 152 -15 191 52z
" />
    <glyph glyph-name="o" unicode="o" horiz-adv-x="851" 
d="M205 210c8 -11 16 -21 26 -31c9 -9 20 -18 31 -26l456 456c119 -147 109 -364 -27 -500c-146 -147 -384 -147 -530 0c-147 146 -147 384 0 530c136 136 353 146 500 27zM627 172c-111 -111 -292 -111 -403 0s-111 292 0 403c99 99 253 110 364 32l58 57
c-143 109 -348 98 -478 -32c-143 -142 -143 -374 0 -516c142 -143 374 -143 516 0c130 130 141 335 32 478l-57 -58c77 -111 67 -265 -32 -364zM620 179c96 96 106 243 32 350l-383 -382c108 -74 256 -63 351 32zM231 568c-95 -95 -106 -243 -32 -351l382 383
c-107 74 -254 64 -350 -32z" />
    <glyph glyph-name="one" unicode="1" horiz-adv-x="290" 
d="M50 433l190 190v-623h-10v598l-80 -80v-518h-10v508l-90 -90v15zM50 545v15l190 190v-15z" />
    <glyph glyph-name="p" unicode="p" horiz-adv-x="590" 
d="M60 650v-650h-10v660h250c83 0 150 -67 150 -150s-67 -150 -150 -150h-150v-80h150c127 0 230 103 230 230s-103 230 -230 230h-250v10h250c132 0 240 -108 240 -240s-108 -240 -240 -240h-150v-270h-10v650h-80zM441 510c0 78 -63 141 -141 141v-1h-150v-280h150
c78 0 141 62 141 140z" />
    <glyph glyph-name="q" unicode="q" horiz-adv-x="851" 
d="M726 3l-73 73c-147 -112 -358 -101 -493 33c-146 147 -146 384 0 531c147 146 384 146 531 0c134 -135 145 -346 33 -493l73 -73l-7 -7l-144 143c81 108 72 261 -26 359c-107 107 -281 107 -389 0c-107 -108 -107 -282 0 -389c98 -98 251 -107 359 -26l143 -144zM627 576
c99 -99 110 -254 33 -365l57 -57c107 143 97 348 -33 478c-142 143 -374 143 -516 0c-143 -142 -143 -374 0 -516c130 -130 335 -141 478 -33l-57 57c-112 -77 -266 -66 -365 33c-111 111 -111 292 0 403s292 111 403 0z" />
    <glyph glyph-name="r" unicode="r" horiz-adv-x="608" 
d="M547 0l-258 370h11c77 0 140 63 140 140s-63 140 -140 140h-150v-650h-10v650h-80v-650h-10v660h250c83 0 150 -67 150 -150c0 -81 -64 -147 -143 -150l51 -73c99 25 172 116 172 223c0 127 -103 230 -230 230h-250v10h250c132 0 240 -108 240 -240
c0 -110 -75 -204 -176 -232l194 -278h-11zM437 0l-193 273l9 7l195 -280h-11z" />
    <glyph glyph-name="r.salt" horiz-adv-x="563" 
d="M513 212v-212h-10v212c0 111 -89 201 -198 203h-245v-80h240c68 0 123 -55 123 -123v-212h-10v212c0 62 -51 113 -113 113h-150v-325h-10v325h-80v-325h-10v660h250c68 0 123 -55 123 -123c0 -54 -35 -100 -84 -116c34 -6 64 -19 90 -39c45 37 74 93 74 155
c0 112 -91 203 -203 203h-250v10h250c118 0 213 -95 213 -213c0 -65 -30 -123 -76 -161c46 -39 76 -98 76 -164zM413 537c0 62 -51 113 -113 113h-150v-225h154c60 3 109 52 109 112zM60 650v-225h80v225h-80z" />
    <glyph glyph-name="s" unicode="s" horiz-adv-x="525" 
d="M263 650c-62 0 -113 -51 -113 -113s50 -112 112 -112c118 0 213 -94 213 -212s-95 -213 -213 -213h-212v10h212c112 0 203 91 203 203s-91 202 -203 202c-68 0 -122 54 -122 122s55 123 123 123h212v-10h-212zM262 90h-212v10h212c62 0 113 51 113 113
c0 61 -51 111 -112 112c-118 0 -213 94 -213 212s95 213 213 213h212v-10h-212c-112 0 -203 -91 -203 -203s91 -202 203 -202c67 -1 122 -55 122 -122c0 -68 -55 -123 -123 -123z" />
    <glyph glyph-name="s.salt" horiz-adv-x="708" 
d="M223 650h-97l423 -650h-491v10h474l-52 80h-422v10h416l-366 560h550v-10h-425l425 -650h-13zM658 740h-601l-7 10h608v-10z" />
    <glyph glyph-name="seven" unicode="7" horiz-adv-x="581" 
d="M433 750l-313 -750h-11l272 650h-331v10h335l34 80h-369v10h383zM206 0l314 750h11l-314 -750h-11z" />
    <glyph glyph-name="six" unicode="6" horiz-adv-x="581" 
d="M88 368l220 382h12l-195 -337c36 34 82 55 129 63l158 274h12l-158 -273c49 6 99 -4 145 -30c114 -66 153 -213 87 -328c-66 -114 -213 -153 -328 -87c-114 66 -153 213 -87 328zM96 362l-5 -7c-63 -110 -26 -251 84 -315c110 -63 251 -26 315 84c63 110 25 251 -84 315
c-108 62 -244 27 -310 -77zM161 314c41 72 133 97 204 55c72 -41 97 -133 55 -205c-41 -71 -133 -96 -205 -54c-71 41 -96 133 -54 204zM169 309c-38 -66 -15 -152 51 -191c67 -38 153 -15 192 51c38 67 15 153 -52 192c-66 38 -152 15 -191 -52z" />
    <glyph glyph-name="space" unicode=" " horiz-adv-x="250" 
 />
    <glyph glyph-name="t" unicode="t" horiz-adv-x="700" 
d="M400 0h-10v650h-80v-650h-10v650h-250v10h600v-10h-250v-650zM650 740h-600v10h600v-10z" />
    <glyph glyph-name="three" unicode="3" horiz-adv-x="525" 
d="M375 537c0 62 -51 113 -113 113h-212v10h212c68 0 123 -55 123 -123c0 -54 -35 -100 -84 -116c34 -6 64 -19 90 -39c45 37 74 93 74 155c0 112 -91 203 -203 203h-212v10h212c118 0 213 -95 213 -213c0 -65 -30 -123 -76 -161c46 -39 76 -98 76 -164
c0 -118 -95 -212 -213 -212h-212v10h212c112 0 203 90 203 202c0 111 -89 201 -198 203h-217v10h216c60 3 109 52 109 112zM375 212c0 62 -51 113 -113 113h-212v10h212c68 0 123 -55 123 -123s-55 -122 -123 -122h-212v10h212c62 0 113 50 113 112z" />
    <glyph glyph-name="two" unicode="2" horiz-adv-x="582" 
d="M531 90h-399l268 333c48 59 39 147 -21 196c-61 49 -149 39 -197 -21c-23 -29 -34 -64 -31 -98h-10c-2 36 9 73 33 104c51 65 146 76 211 23c65 -52 75 -146 23 -210l-254 -317h101l214 266c80 100 65 244 -34 323c-99 80 -244 64 -324 -35c-36 -46 -53 -100 -51 -154h-9
c-2 56 15 113 52 161c83 103 235 119 339 36c103 -82 119 -234 36 -337l-209 -260h262v-10zM531 0h-471l8 10h463v-10z" />
    <glyph glyph-name="u" unicode="u" horiz-adv-x="630" 
d="M580 265c0 -146 -119 -265 -265 -265s-265 119 -265 265v485h10v-485c0 -141 114 -255 255 -255s255 114 255 255v485h10v-485zM490 265c0 -97 -78 -175 -175 -175s-175 78 -175 175v485h10v-485c0 -91 74 -165 165 -165s165 74 165 165v485h10v-485z" />
    <glyph glyph-name="v" unicode="v" horiz-adv-x="846" 
d="M698 750c-278 -557 -270 -539 -324 -651l-324 651h10l314 -629l44 88l-269 541h10l264 -530l264 530h11zM786 750h10l-373 -750l-6 11c56 109 47 92 369 739z" />
    <glyph glyph-name="w" unicode="w" horiz-adv-x="1125" 
d="M702 22c15 30 28 55 44 88l-189 379l5 11l140 -280l264 530h11c-172 -345 -235 -469 -270 -540l44 -90c38 77 106 212 314 630h10l-373 -750l-140 280l-139 -280l-6 11c44 92 92 182 140 280l-44 89c-47 -92 -93 -184 -139 -282l-324 652h10l314 -629l44 88l-5 10
l-264 531h10l264 -530l90 181z" />
    <glyph glyph-name="x" unicode="x" horiz-adv-x="711" 
d="M650 0l-492 750h11l187 -285l187 285h11l-193 -293l49 -74l241 367h10l-246 -375l246 -375h-11zM356 285l-187 -285h-11l193 293l-49 74l-241 -367h-11l247 375l-247 375h10l494 -750h-11z" />
    <glyph glyph-name="y" unicode="y" horiz-adv-x="795" 
d="M452 327l-292 423h11l227 -326l226 326h12l-232 -335l48 -69l280 404h13zM452 0h-10v186l-85 122v-308h-10v323l-297 427h14l388 -561v-189z" />
    <glyph glyph-name="z" unicode="z" horiz-adv-x="708" 
d="M126 100h97l422 650h13l-425 -650h425v-10h-550l366 560h-416v10h422l52 80h-474v10h491zM57 10h601v-10h-608z" />
    <glyph glyph-name="zero" unicode="0" horiz-adv-x="630" 
d="M150 265c0 -32 9 -62 25 -87l391 391c9 -26 14 -55 14 -84v-220c0 -146 -119 -265 -265 -265s-265 119 -265 265v220c0 146 119 265 265 265c86 0 163 -42 211 -107l-376 -376v-2zM490 265c0 -97 -78 -175 -175 -175s-175 78 -175 175v220c0 97 78 175 175 175
c58 0 110 -29 142 -72l57 57c-47 58 -119 95 -199 95c-141 0 -255 -114 -255 -255v-220c0 -141 114 -255 255 -255s255 114 255 255v220c0 22 -3 44 -9 65l-71 -71v-214zM315 100c91 0 165 74 165 165v204l-300 -300c30 -42 79 -69 135 -69zM150 485v-204l299 299
c-30 42 -79 70 -134 70c-91 0 -165 -74 -165 -165z" />
    <glyph glyph-name="ampersand" unicode="&#x26;" horiz-adv-x="638" 
d="M290 10c51 0 99 17 137 45c21 21 69 66 153 150v-14l-75 -75l83 -116h-11l-79 109c-45 -45 -52 -51 -58 -56l38 -53h-12l-34 47c-39 -30 -89 -47 -142 -47c-132 0 -240 108 -240 240c0 80 40 152 101 195l-16 23c-59 82 -41 198 42 258c82 59 198 41 258 -41l-8 -6
c-57 79 -165 96 -244 39s-97 -165 -40 -244l238 -330c3 2 5 4 58 57l-231 320c-30 42 -20 102 22 133c42 30 101 20 132 -22l-8 -6c-28 38 -81 46 -118 19c-39 -28 -47 -81 -20 -118l230 -319l134 134v-14c-131 -131 -186 -184 -200 -198c-25 -19 -57 -30 -90 -30
c-83 0 -150 67 -150 150c0 51 25 96 64 123l-47 64c-59 -41 -97 -110 -97 -187c0 -127 103 -230 230 -230zM290 100c31 0 60 10 84 28l-164 226c-36 -25 -60 -67 -60 -114c0 -77 63 -140 140 -140z" />
    <glyph glyph-name="apple" unicode="&#xf8ff;" horiz-adv-x="739" 
d="M20 700h700l-85 -175h-175l-90 -350l-90 350h-175zM270 480l100 -305l100 305h140l-240 -480l-240 480h140z" />
    <glyph glyph-name="A" unicode="A" horiz-adv-x="846" 
d="M179 240c-12 -26 -25 -52 -40 -80h577l80 -160h-10l-75 150h-89l75 -150h-10l-75 150h-379l-74 -150h-11c27 55 52 105 74 150h-88c-23 -46 -47 -95 -74 -150h-10l373 750l6 -11c-48 -93 -50 -97 -245 -489h88c152 304 156 309 200 401l204 -411h-497zM423 530l-140 -280
h279zM472 629l-44 -88l144 -291h89z" />
    </font>
</defs>
</svg>
